<mxfile host="app.diagrams.net" agent="Mozilla/5.0 (Windows NT 10.0; Win64; x64) AppleWebKit/537.36 (KHTML, like Gecko) Chrome/128.0.0.0 Safari/537.36 Edg/128.0.0.0" version="24.7.12">
  <diagram name="第 1 页" id="awIkP8RN5hTLHwGIefpZ">
    <mxGraphModel dx="1473" dy="531" grid="1" gridSize="10" guides="1" tooltips="1" connect="1" arrows="1" fold="1" page="0" pageScale="1" pageWidth="3300" pageHeight="2339" math="0" shadow="0">
      <root>
        <mxCell id="0" />
        <mxCell id="1" parent="0" />
        <mxCell id="M7_paJHChMFwzIcC6LB1-51" value="" style="ellipse;whiteSpace=wrap;html=1;fontFamily=Architects Daughter;fontSource=https%3A%2F%2Ffonts.googleapis.com%2Fcss%3Ffamily%3DArchitects%2BDaughter;" vertex="1" parent="1">
          <mxGeometry x="250" y="500" width="50" height="30" as="geometry" />
        </mxCell>
        <mxCell id="M7_paJHChMFwzIcC6LB1-48" value="" style="ellipse;whiteSpace=wrap;html=1;fontFamily=Architects Daughter;fontSource=https%3A%2F%2Ffonts.googleapis.com%2Fcss%3Ffamily%3DArchitects%2BDaughter;" vertex="1" parent="1">
          <mxGeometry y="510" width="50" height="30" as="geometry" />
        </mxCell>
        <mxCell id="M7_paJHChMFwzIcC6LB1-46" value="" style="ellipse;whiteSpace=wrap;html=1;fontFamily=Architects Daughter;fontSource=https%3A%2F%2Ffonts.googleapis.com%2Fcss%3Ffamily%3DArchitects%2BDaughter;" vertex="1" parent="1">
          <mxGeometry x="-140" y="520" width="50" height="30" as="geometry" />
        </mxCell>
        <mxCell id="M7_paJHChMFwzIcC6LB1-2" value="" style="endArrow=none;dashed=1;html=1;dashPattern=1 3;strokeWidth=2;rounded=0;fontFamily=Architects Daughter;fontSource=https%3A%2F%2Ffonts.googleapis.com%2Fcss%3Ffamily%3DArchitects%2BDaughter;fontSize=16;startSize=14;endSize=14;sourcePerimeterSpacing=8;targetPerimeterSpacing=8;curved=1;" edge="1" parent="1">
          <mxGeometry width="50" height="50" relative="1" as="geometry">
            <mxPoint x="-238" y="299" as="sourcePoint" />
            <mxPoint x="400" y="280" as="targetPoint" />
            <Array as="points">
              <mxPoint x="-201" y="299" />
              <mxPoint x="-173" y="244" />
              <mxPoint x="-115" y="252" />
              <mxPoint x="-51" y="275" />
              <mxPoint x="30" y="244" />
              <mxPoint x="74" y="204" />
              <mxPoint x="140" y="270" />
              <mxPoint x="200" y="150" />
              <mxPoint x="260" y="260" />
              <mxPoint x="360" y="220" />
            </Array>
          </mxGeometry>
        </mxCell>
        <mxCell id="M7_paJHChMFwzIcC6LB1-4" value="" style="endArrow=classic;startArrow=classic;html=1;rounded=0;fontFamily=Architects Daughter;fontSource=https%3A%2F%2Ffonts.googleapis.com%2Fcss%3Ffamily%3DArchitects%2BDaughter;fontSize=16;startSize=14;endSize=14;sourcePerimeterSpacing=8;targetPerimeterSpacing=8;curved=1;" edge="1" parent="1">
          <mxGeometry width="50" height="50" relative="1" as="geometry">
            <mxPoint x="-248" y="369" as="sourcePoint" />
            <mxPoint x="-60" y="370" as="targetPoint" />
          </mxGeometry>
        </mxCell>
        <mxCell id="M7_paJHChMFwzIcC6LB1-15" value="&lt;font face=&quot;Times New Roman&quot;&gt;1&lt;/font&gt;" style="edgeLabel;html=1;align=center;verticalAlign=middle;resizable=0;points=[];fontSize=16;fontFamily=Architects Daughter;fontSource=https%3A%2F%2Ffonts.googleapis.com%2Fcss%3Ffamily%3DArchitects%2BDaughter;" vertex="1" connectable="0" parent="M7_paJHChMFwzIcC6LB1-4">
          <mxGeometry x="0.0161" y="-2" relative="1" as="geometry">
            <mxPoint y="-2" as="offset" />
          </mxGeometry>
        </mxCell>
        <mxCell id="M7_paJHChMFwzIcC6LB1-5" value="" style="endArrow=classic;startArrow=classic;html=1;rounded=0;fontFamily=Architects Daughter;fontSource=https%3A%2F%2Ffonts.googleapis.com%2Fcss%3Ffamily%3DArchitects%2BDaughter;fontSize=16;startSize=14;endSize=14;sourcePerimeterSpacing=8;targetPerimeterSpacing=8;curved=1;" edge="1" parent="1">
          <mxGeometry width="50" height="50" relative="1" as="geometry">
            <mxPoint x="-60" y="370" as="sourcePoint" />
            <mxPoint x="128" y="371" as="targetPoint" />
          </mxGeometry>
        </mxCell>
        <mxCell id="M7_paJHChMFwzIcC6LB1-16" value="&lt;font face=&quot;Times New Roman&quot;&gt;2&lt;/font&gt;" style="edgeLabel;html=1;align=center;verticalAlign=middle;resizable=0;points=[];fontSize=16;fontFamily=Architects Daughter;fontSource=https%3A%2F%2Ffonts.googleapis.com%2Fcss%3Ffamily%3DArchitects%2BDaughter;" vertex="1" connectable="0" parent="M7_paJHChMFwzIcC6LB1-5">
          <mxGeometry x="0.0283" y="1" relative="1" as="geometry">
            <mxPoint as="offset" />
          </mxGeometry>
        </mxCell>
        <mxCell id="M7_paJHChMFwzIcC6LB1-7" value="" style="endArrow=classic;startArrow=classic;html=1;rounded=0;fontFamily=Architects Daughter;fontSource=https%3A%2F%2Ffonts.googleapis.com%2Fcss%3Ffamily%3DArchitects%2BDaughter;fontSize=16;startSize=14;endSize=14;sourcePerimeterSpacing=8;targetPerimeterSpacing=8;curved=1;" edge="1" parent="1">
          <mxGeometry width="50" height="50" relative="1" as="geometry">
            <mxPoint x="210" y="372" as="sourcePoint" />
            <mxPoint x="398" y="373" as="targetPoint" />
          </mxGeometry>
        </mxCell>
        <mxCell id="M7_paJHChMFwzIcC6LB1-17" value="&lt;font face=&quot;Times New Roman&quot;&gt;n&lt;/font&gt;" style="edgeLabel;html=1;align=center;verticalAlign=middle;resizable=0;points=[];fontSize=16;fontFamily=Architects Daughter;fontSource=https%3A%2F%2Ffonts.googleapis.com%2Fcss%3Ffamily%3DArchitects%2BDaughter;" vertex="1" connectable="0" parent="M7_paJHChMFwzIcC6LB1-7">
          <mxGeometry x="0.1258" y="2" relative="1" as="geometry">
            <mxPoint x="-4" as="offset" />
          </mxGeometry>
        </mxCell>
        <mxCell id="M7_paJHChMFwzIcC6LB1-9" value="" style="endArrow=none;html=1;rounded=0;fontFamily=Architects Daughter;fontSource=https%3A%2F%2Ffonts.googleapis.com%2Fcss%3Ffamily%3DArchitects%2BDaughter;fontSize=16;startSize=14;endSize=14;sourcePerimeterSpacing=8;targetPerimeterSpacing=8;curved=1;" edge="1" parent="1">
          <mxGeometry width="50" height="50" relative="1" as="geometry">
            <mxPoint x="-60" y="380" as="sourcePoint" />
            <mxPoint x="-60" y="160" as="targetPoint" />
          </mxGeometry>
        </mxCell>
        <mxCell id="M7_paJHChMFwzIcC6LB1-13" value="......" style="text;strokeColor=none;fillColor=none;html=1;align=center;verticalAlign=middle;whiteSpace=wrap;rounded=0;fontSize=20;fontFamily=Times New Roman;" vertex="1" parent="1">
          <mxGeometry x="140" y="350" width="60" height="30" as="geometry" />
        </mxCell>
        <mxCell id="M7_paJHChMFwzIcC6LB1-18" value="" style="endArrow=none;html=1;rounded=0;fontFamily=Architects Daughter;fontSource=https%3A%2F%2Ffonts.googleapis.com%2Fcss%3Ffamily%3DArchitects%2BDaughter;fontSize=16;startSize=14;endSize=14;sourcePerimeterSpacing=8;targetPerimeterSpacing=8;curved=1;" edge="1" parent="1">
          <mxGeometry width="50" height="50" relative="1" as="geometry">
            <mxPoint x="-250" y="380" as="sourcePoint" />
            <mxPoint x="-250" y="160" as="targetPoint" />
          </mxGeometry>
        </mxCell>
        <mxCell id="M7_paJHChMFwzIcC6LB1-19" value="" style="endArrow=none;html=1;rounded=0;fontFamily=Architects Daughter;fontSource=https%3A%2F%2Ffonts.googleapis.com%2Fcss%3Ffamily%3DArchitects%2BDaughter;fontSize=16;startSize=14;endSize=14;sourcePerimeterSpacing=8;targetPerimeterSpacing=8;curved=1;" edge="1" parent="1">
          <mxGeometry width="50" height="50" relative="1" as="geometry">
            <mxPoint x="130" y="380" as="sourcePoint" />
            <mxPoint x="130" y="160" as="targetPoint" />
          </mxGeometry>
        </mxCell>
        <mxCell id="M7_paJHChMFwzIcC6LB1-20" value="" style="endArrow=none;html=1;rounded=0;fontFamily=Architects Daughter;fontSource=https%3A%2F%2Ffonts.googleapis.com%2Fcss%3Ffamily%3DArchitects%2BDaughter;fontSize=16;startSize=14;endSize=14;sourcePerimeterSpacing=8;targetPerimeterSpacing=8;curved=1;" edge="1" parent="1">
          <mxGeometry width="50" height="50" relative="1" as="geometry">
            <mxPoint x="210" y="380" as="sourcePoint" />
            <mxPoint x="210" y="160" as="targetPoint" />
          </mxGeometry>
        </mxCell>
        <mxCell id="M7_paJHChMFwzIcC6LB1-21" value="" style="endArrow=none;html=1;rounded=0;fontFamily=Architects Daughter;fontSource=https%3A%2F%2Ffonts.googleapis.com%2Fcss%3Ffamily%3DArchitects%2BDaughter;fontSize=16;startSize=14;endSize=14;sourcePerimeterSpacing=8;targetPerimeterSpacing=8;curved=1;" edge="1" parent="1">
          <mxGeometry width="50" height="50" relative="1" as="geometry">
            <mxPoint x="400" y="380" as="sourcePoint" />
            <mxPoint x="400" y="160" as="targetPoint" />
          </mxGeometry>
        </mxCell>
        <mxCell id="M7_paJHChMFwzIcC6LB1-23" value="" style="endArrow=none;dashed=1;html=1;dashPattern=1 3;strokeWidth=2;rounded=0;fontFamily=Architects Daughter;fontSource=https%3A%2F%2Ffonts.googleapis.com%2Fcss%3Ffamily%3DArchitects%2BDaughter;fontSize=16;startSize=14;endSize=14;sourcePerimeterSpacing=8;targetPerimeterSpacing=8;curved=1;" edge="1" parent="1">
          <mxGeometry width="50" height="50" relative="1" as="geometry">
            <mxPoint x="-230" y="570" as="sourcePoint" />
            <mxPoint x="-130" y="530" as="targetPoint" />
            <Array as="points">
              <mxPoint x="-180" y="540" />
              <mxPoint x="-150" y="550" />
            </Array>
          </mxGeometry>
        </mxCell>
        <mxCell id="M7_paJHChMFwzIcC6LB1-24" value="" style="endArrow=none;dashed=1;html=1;dashPattern=1 3;strokeWidth=2;rounded=0;fontFamily=Architects Daughter;fontSource=https%3A%2F%2Ffonts.googleapis.com%2Fcss%3Ffamily%3DArchitects%2BDaughter;fontSize=16;startSize=14;endSize=14;sourcePerimeterSpacing=8;targetPerimeterSpacing=8;curved=1;" edge="1" parent="1">
          <mxGeometry width="50" height="50" relative="1" as="geometry">
            <mxPoint x="-130" y="530" as="sourcePoint" />
            <mxPoint x="-120" y="540" as="targetPoint" />
            <Array as="points">
              <mxPoint x="-110" y="530" />
              <mxPoint x="-120" y="530" />
              <mxPoint x="-110" y="540" />
              <mxPoint x="-120" y="540" />
            </Array>
          </mxGeometry>
        </mxCell>
        <mxCell id="M7_paJHChMFwzIcC6LB1-25" value="" style="endArrow=none;dashed=1;html=1;dashPattern=1 3;strokeWidth=2;rounded=0;fontFamily=Architects Daughter;fontSource=https%3A%2F%2Ffonts.googleapis.com%2Fcss%3Ffamily%3DArchitects%2BDaughter;fontSize=16;startSize=14;endSize=14;sourcePerimeterSpacing=8;targetPerimeterSpacing=8;curved=1;" edge="1" parent="1">
          <mxGeometry width="50" height="50" relative="1" as="geometry">
            <mxPoint x="-120" y="535" as="sourcePoint" />
            <mxPoint x="30" y="525" as="targetPoint" />
            <Array as="points">
              <mxPoint x="-80" y="510" />
              <mxPoint x="-70" y="535" />
              <mxPoint x="-10" y="520" />
            </Array>
          </mxGeometry>
        </mxCell>
        <mxCell id="M7_paJHChMFwzIcC6LB1-26" value="" style="endArrow=none;dashed=1;html=1;dashPattern=1 3;strokeWidth=2;rounded=0;fontFamily=Architects Daughter;fontSource=https%3A%2F%2Ffonts.googleapis.com%2Fcss%3Ffamily%3DArchitects%2BDaughter;fontSize=16;startSize=14;endSize=14;sourcePerimeterSpacing=8;targetPerimeterSpacing=8;curved=1;" edge="1" parent="1">
          <mxGeometry width="50" height="50" relative="1" as="geometry">
            <mxPoint x="20" y="520" as="sourcePoint" />
            <mxPoint x="30" y="510" as="targetPoint" />
            <Array as="points">
              <mxPoint x="40" y="520" />
            </Array>
          </mxGeometry>
        </mxCell>
        <mxCell id="M7_paJHChMFwzIcC6LB1-27" value="" style="endArrow=none;dashed=1;html=1;dashPattern=1 3;strokeWidth=2;rounded=0;fontFamily=Architects Daughter;fontSource=https%3A%2F%2Ffonts.googleapis.com%2Fcss%3Ffamily%3DArchitects%2BDaughter;fontSize=16;startSize=14;endSize=14;sourcePerimeterSpacing=8;targetPerimeterSpacing=8;curved=1;" edge="1" parent="1">
          <mxGeometry width="50" height="50" relative="1" as="geometry">
            <mxPoint x="30" y="520" as="sourcePoint" />
            <mxPoint x="270" y="520" as="targetPoint" />
            <Array as="points">
              <mxPoint x="130" y="550" />
              <mxPoint x="160" y="480" />
              <mxPoint x="180" y="550" />
              <mxPoint x="250" y="500" />
            </Array>
          </mxGeometry>
        </mxCell>
        <mxCell id="M7_paJHChMFwzIcC6LB1-28" value="" style="endArrow=none;dashed=1;html=1;dashPattern=1 3;strokeWidth=2;rounded=0;fontFamily=Architects Daughter;fontSource=https%3A%2F%2Ffonts.googleapis.com%2Fcss%3Ffamily%3DArchitects%2BDaughter;fontSize=16;startSize=14;endSize=14;sourcePerimeterSpacing=8;targetPerimeterSpacing=8;curved=1;" edge="1" parent="1">
          <mxGeometry width="50" height="50" relative="1" as="geometry">
            <mxPoint x="260" y="520" as="sourcePoint" />
            <mxPoint x="260" y="500" as="targetPoint" />
            <Array as="points">
              <mxPoint x="270" y="510" />
            </Array>
          </mxGeometry>
        </mxCell>
        <mxCell id="M7_paJHChMFwzIcC6LB1-29" value="" style="endArrow=none;dashed=1;html=1;dashPattern=1 3;strokeWidth=2;rounded=0;fontFamily=Architects Daughter;fontSource=https%3A%2F%2Ffonts.googleapis.com%2Fcss%3Ffamily%3DArchitects%2BDaughter;fontSize=16;startSize=14;endSize=14;sourcePerimeterSpacing=8;targetPerimeterSpacing=8;curved=1;" edge="1" parent="1">
          <mxGeometry width="50" height="50" relative="1" as="geometry">
            <mxPoint x="270" y="510" as="sourcePoint" />
            <mxPoint x="400" y="500" as="targetPoint" />
            <Array as="points">
              <mxPoint x="270" y="520" />
              <mxPoint x="300" y="530" />
            </Array>
          </mxGeometry>
        </mxCell>
        <mxCell id="M7_paJHChMFwzIcC6LB1-30" value="" style="endArrow=classic;startArrow=classic;html=1;rounded=0;fontFamily=Architects Daughter;fontSource=https%3A%2F%2Ffonts.googleapis.com%2Fcss%3Ffamily%3DArchitects%2BDaughter;fontSize=16;startSize=14;endSize=14;sourcePerimeterSpacing=8;targetPerimeterSpacing=8;curved=1;" edge="1" parent="1">
          <mxGeometry width="50" height="50" relative="1" as="geometry">
            <mxPoint x="-250" y="630" as="sourcePoint" />
            <mxPoint x="-120" y="631" as="targetPoint" />
          </mxGeometry>
        </mxCell>
        <mxCell id="M7_paJHChMFwzIcC6LB1-31" value="&lt;font face=&quot;Times New Roman&quot;&gt;1&lt;/font&gt;" style="edgeLabel;html=1;align=center;verticalAlign=middle;resizable=0;points=[];fontSize=16;fontFamily=Architects Daughter;fontSource=https%3A%2F%2Ffonts.googleapis.com%2Fcss%3Ffamily%3DArchitects%2BDaughter;" vertex="1" connectable="0" parent="M7_paJHChMFwzIcC6LB1-30">
          <mxGeometry x="0.0161" y="-2" relative="1" as="geometry">
            <mxPoint y="-2" as="offset" />
          </mxGeometry>
        </mxCell>
        <mxCell id="M7_paJHChMFwzIcC6LB1-32" value="" style="endArrow=classic;startArrow=classic;html=1;rounded=0;fontFamily=Architects Daughter;fontSource=https%3A%2F%2Ffonts.googleapis.com%2Fcss%3Ffamily%3DArchitects%2BDaughter;fontSize=16;startSize=14;endSize=14;sourcePerimeterSpacing=8;targetPerimeterSpacing=8;curved=1;" edge="1" parent="1">
          <mxGeometry width="50" height="50" relative="1" as="geometry">
            <mxPoint x="-110" y="631" as="sourcePoint" />
            <mxPoint x="20" y="632" as="targetPoint" />
          </mxGeometry>
        </mxCell>
        <mxCell id="M7_paJHChMFwzIcC6LB1-33" value="&lt;font face=&quot;Times New Roman&quot;&gt;2&lt;/font&gt;" style="edgeLabel;html=1;align=center;verticalAlign=middle;resizable=0;points=[];fontSize=16;fontFamily=Architects Daughter;fontSource=https%3A%2F%2Ffonts.googleapis.com%2Fcss%3Ffamily%3DArchitects%2BDaughter;" vertex="1" connectable="0" parent="M7_paJHChMFwzIcC6LB1-32">
          <mxGeometry x="0.0161" y="-2" relative="1" as="geometry">
            <mxPoint y="-2" as="offset" />
          </mxGeometry>
        </mxCell>
        <mxCell id="M7_paJHChMFwzIcC6LB1-36" value="" style="endArrow=classic;startArrow=classic;html=1;rounded=0;fontFamily=Architects Daughter;fontSource=https%3A%2F%2Ffonts.googleapis.com%2Fcss%3Ffamily%3DArchitects%2BDaughter;fontSize=16;startSize=14;endSize=14;sourcePerimeterSpacing=8;targetPerimeterSpacing=8;curved=1;" edge="1" parent="1">
          <mxGeometry width="50" height="50" relative="1" as="geometry">
            <mxPoint x="275" y="633" as="sourcePoint" />
            <mxPoint x="410" y="630" as="targetPoint" />
          </mxGeometry>
        </mxCell>
        <mxCell id="M7_paJHChMFwzIcC6LB1-37" value="&lt;font face=&quot;Times New Roman&quot;&gt;n&lt;/font&gt;" style="edgeLabel;html=1;align=center;verticalAlign=middle;resizable=0;points=[];fontSize=16;fontFamily=Architects Daughter;fontSource=https%3A%2F%2Ffonts.googleapis.com%2Fcss%3Ffamily%3DArchitects%2BDaughter;" vertex="1" connectable="0" parent="M7_paJHChMFwzIcC6LB1-36">
          <mxGeometry x="0.0161" y="-2" relative="1" as="geometry">
            <mxPoint y="-4" as="offset" />
          </mxGeometry>
        </mxCell>
        <mxCell id="M7_paJHChMFwzIcC6LB1-38" value="" style="endArrow=none;html=1;rounded=0;fontFamily=Architects Daughter;fontSource=https%3A%2F%2Ffonts.googleapis.com%2Fcss%3Ffamily%3DArchitects%2BDaughter;fontSize=16;startSize=14;endSize=14;sourcePerimeterSpacing=8;targetPerimeterSpacing=8;curved=1;" edge="1" parent="1">
          <mxGeometry width="50" height="50" relative="1" as="geometry">
            <mxPoint x="-250" y="640" as="sourcePoint" />
            <mxPoint x="-250" y="480" as="targetPoint" />
          </mxGeometry>
        </mxCell>
        <mxCell id="M7_paJHChMFwzIcC6LB1-39" value="" style="endArrow=none;html=1;rounded=0;fontFamily=Architects Daughter;fontSource=https%3A%2F%2Ffonts.googleapis.com%2Fcss%3Ffamily%3DArchitects%2BDaughter;fontSize=16;startSize=14;endSize=14;sourcePerimeterSpacing=8;targetPerimeterSpacing=8;curved=1;" edge="1" parent="1">
          <mxGeometry width="50" height="50" relative="1" as="geometry">
            <mxPoint x="-120" y="640" as="sourcePoint" />
            <mxPoint x="-120" y="480" as="targetPoint" />
          </mxGeometry>
        </mxCell>
        <mxCell id="M7_paJHChMFwzIcC6LB1-40" value="" style="endArrow=none;html=1;rounded=0;fontFamily=Architects Daughter;fontSource=https%3A%2F%2Ffonts.googleapis.com%2Fcss%3Ffamily%3DArchitects%2BDaughter;fontSize=16;startSize=14;endSize=14;sourcePerimeterSpacing=8;targetPerimeterSpacing=8;curved=1;" edge="1" parent="1">
          <mxGeometry width="50" height="50" relative="1" as="geometry">
            <mxPoint x="-110" y="640" as="sourcePoint" />
            <mxPoint x="-110" y="480" as="targetPoint" />
          </mxGeometry>
        </mxCell>
        <mxCell id="M7_paJHChMFwzIcC6LB1-41" value="" style="endArrow=none;html=1;rounded=0;fontFamily=Architects Daughter;fontSource=https%3A%2F%2Ffonts.googleapis.com%2Fcss%3Ffamily%3DArchitects%2BDaughter;fontSize=16;startSize=14;endSize=14;sourcePerimeterSpacing=8;targetPerimeterSpacing=8;curved=1;" edge="1" parent="1">
          <mxGeometry width="50" height="50" relative="1" as="geometry">
            <mxPoint x="20" y="640" as="sourcePoint" />
            <mxPoint x="20" y="480" as="targetPoint" />
          </mxGeometry>
        </mxCell>
        <mxCell id="M7_paJHChMFwzIcC6LB1-42" value="" style="endArrow=none;html=1;rounded=0;fontFamily=Architects Daughter;fontSource=https%3A%2F%2Ffonts.googleapis.com%2Fcss%3Ffamily%3DArchitects%2BDaughter;fontSize=16;startSize=14;endSize=14;sourcePerimeterSpacing=8;targetPerimeterSpacing=8;curved=1;" edge="1" parent="1">
          <mxGeometry width="50" height="50" relative="1" as="geometry">
            <mxPoint x="40" y="640" as="sourcePoint" />
            <mxPoint x="40" y="480" as="targetPoint" />
          </mxGeometry>
        </mxCell>
        <mxCell id="M7_paJHChMFwzIcC6LB1-43" value="" style="endArrow=none;html=1;rounded=0;fontFamily=Architects Daughter;fontSource=https%3A%2F%2Ffonts.googleapis.com%2Fcss%3Ffamily%3DArchitects%2BDaughter;fontSize=16;startSize=14;endSize=14;sourcePerimeterSpacing=8;targetPerimeterSpacing=8;curved=1;" edge="1" parent="1">
          <mxGeometry width="50" height="50" relative="1" as="geometry">
            <mxPoint x="260" y="640" as="sourcePoint" />
            <mxPoint x="260" y="480" as="targetPoint" />
          </mxGeometry>
        </mxCell>
        <mxCell id="M7_paJHChMFwzIcC6LB1-44" value="" style="endArrow=none;html=1;rounded=0;fontFamily=Architects Daughter;fontSource=https%3A%2F%2Ffonts.googleapis.com%2Fcss%3Ffamily%3DArchitects%2BDaughter;fontSize=16;startSize=14;endSize=14;sourcePerimeterSpacing=8;targetPerimeterSpacing=8;curved=1;" edge="1" parent="1">
          <mxGeometry width="50" height="50" relative="1" as="geometry">
            <mxPoint x="275" y="640" as="sourcePoint" />
            <mxPoint x="275" y="480" as="targetPoint" />
          </mxGeometry>
        </mxCell>
        <mxCell id="M7_paJHChMFwzIcC6LB1-45" value="" style="endArrow=none;html=1;rounded=0;fontFamily=Architects Daughter;fontSource=https%3A%2F%2Ffonts.googleapis.com%2Fcss%3Ffamily%3DArchitects%2BDaughter;fontSize=16;startSize=14;endSize=14;sourcePerimeterSpacing=8;targetPerimeterSpacing=8;curved=1;" edge="1" parent="1">
          <mxGeometry width="50" height="50" relative="1" as="geometry">
            <mxPoint x="410" y="640" as="sourcePoint" />
            <mxPoint x="410" y="480" as="targetPoint" />
          </mxGeometry>
        </mxCell>
        <mxCell id="M7_paJHChMFwzIcC6LB1-57" value="......" style="text;strokeColor=none;fillColor=none;html=1;align=center;verticalAlign=middle;whiteSpace=wrap;rounded=0;fontSize=20;fontFamily=Times New Roman;" vertex="1" parent="1">
          <mxGeometry x="125" y="610" width="60" height="30" as="geometry" />
        </mxCell>
        <mxCell id="M7_paJHChMFwzIcC6LB1-58" value="&lt;font style=&quot;font-size: 18px;&quot; face=&quot;宋体&quot;&gt;驻留区1&lt;/font&gt;" style="text;html=1;align=center;verticalAlign=middle;whiteSpace=wrap;rounded=0;fontSize=20;fontFamily=Architects Daughter;fontSource=https%3A%2F%2Ffonts.googleapis.com%2Fcss%3Ffamily%3DArchitects%2BDaughter;" vertex="1" parent="1">
          <mxGeometry x="-200" y="500" width="70" height="30" as="geometry" />
        </mxCell>
        <mxCell id="M7_paJHChMFwzIcC6LB1-59" value="&lt;font style=&quot;font-size: 18px;&quot; face=&quot;宋体&quot;&gt;驻留区2&lt;/font&gt;" style="text;html=1;align=center;verticalAlign=middle;whiteSpace=wrap;rounded=0;fontSize=20;fontFamily=Architects Daughter;fontSource=https%3A%2F%2Ffonts.googleapis.com%2Fcss%3Ffamily%3DArchitects%2BDaughter;" vertex="1" parent="1">
          <mxGeometry x="-57" y="487" width="70" height="30" as="geometry" />
        </mxCell>
        <mxCell id="M7_paJHChMFwzIcC6LB1-60" value="&lt;font style=&quot;font-size: 18px;&quot; face=&quot;宋体&quot;&gt;驻留区n&lt;/font&gt;" style="text;html=1;align=center;verticalAlign=middle;whiteSpace=wrap;rounded=0;fontSize=20;fontFamily=Architects Daughter;fontSource=https%3A%2F%2Ffonts.googleapis.com%2Fcss%3Ffamily%3DArchitects%2BDaughter;" vertex="1" parent="1">
          <mxGeometry x="186" y="478" width="70" height="30" as="geometry" />
        </mxCell>
        <mxCell id="M7_paJHChMFwzIcC6LB1-61" value="" style="group" vertex="1" connectable="0" parent="1">
          <mxGeometry x="-260" y="830" width="670" height="192" as="geometry" />
        </mxCell>
        <mxCell id="M7_paJHChMFwzIcC6LB1-62" value="" style="curved=1;endArrow=oval;html=1;rounded=0;fontFamily=Architects Daughter;fontSource=https%3A%2F%2Ffonts.googleapis.com%2Fcss%3Ffamily%3DArchitects%2BDaughter;fontSize=16;startSize=14;endSize=14;sourcePerimeterSpacing=8;targetPerimeterSpacing=8;endFill=1;startArrow=oval;startFill=1;dashed=1;" edge="1" parent="M7_paJHChMFwzIcC6LB1-61">
          <mxGeometry width="50" height="50" relative="1" as="geometry">
            <mxPoint y="150" as="sourcePoint" />
            <mxPoint x="668.9880239520959" y="39" as="targetPoint" />
            <Array as="points">
              <mxPoint x="85.24550898203593" y="132" />
              <mxPoint x="85.24550898203593" y="85" />
              <mxPoint x="227.67065868263472" y="115" />
              <mxPoint x="227.67065868263472" y="39" />
              <mxPoint x="354.04790419161674" y="82" />
              <mxPoint x="386.14371257485027" y="49" />
              <mxPoint x="394.1676646706586" y="14" />
              <mxPoint x="538.5988023952096" y="24" />
              <mxPoint x="570.6946107784431" y="91" />
            </Array>
          </mxGeometry>
        </mxCell>
        <mxCell id="M7_paJHChMFwzIcC6LB1-63" value="" style="curved=1;endArrow=oval;html=1;rounded=0;fontFamily=Architects Daughter;fontSource=https%3A%2F%2Ffonts.googleapis.com%2Fcss%3Ffamily%3DArchitects%2BDaughter;fontSize=16;startSize=14;endSize=14;sourcePerimeterSpacing=8;targetPerimeterSpacing=8;endFill=1;startArrow=oval;startFill=1;dashed=1;" edge="1" parent="M7_paJHChMFwzIcC6LB1-61">
          <mxGeometry width="50" height="50" relative="1" as="geometry">
            <mxPoint y="150" as="sourcePoint" />
            <mxPoint x="668.9880239520959" y="39" as="targetPoint" />
            <Array as="points">
              <mxPoint x="99.2874251497006" y="136" />
              <mxPoint x="153.44910179640718" y="134" />
              <mxPoint x="229.67664670658684" y="121" />
              <mxPoint x="279.8263473053892" y="97" />
              <mxPoint x="350.03592814371257" y="73" />
              <mxPoint x="418.2395209580838" y="64" />
              <mxPoint x="402.1916167664671" y="9" />
              <mxPoint x="553" y="-50" />
            </Array>
          </mxGeometry>
        </mxCell>
        <mxCell id="M7_paJHChMFwzIcC6LB1-64" value="" style="curved=1;endArrow=oval;html=1;rounded=0;fontFamily=Architects Daughter;fontSource=https%3A%2F%2Ffonts.googleapis.com%2Fcss%3Ffamily%3DArchitects%2BDaughter;fontSize=16;startSize=14;endSize=14;sourcePerimeterSpacing=8;targetPerimeterSpacing=8;endFill=1;startArrow=oval;startFill=1;dashed=1;" edge="1" parent="M7_paJHChMFwzIcC6LB1-61">
          <mxGeometry width="50" height="50" relative="1" as="geometry">
            <mxPoint y="150" as="sourcePoint" />
            <mxPoint x="668.9880239520959" y="39" as="targetPoint" />
            <Array as="points">
              <mxPoint x="85.24550898203593" y="132" />
              <mxPoint x="73.20958083832335" y="77" />
              <mxPoint x="183.53892215568862" y="134" />
              <mxPoint x="195.5748502994012" y="28" />
              <mxPoint x="354.04790419161674" y="82" />
              <mxPoint x="386.14371257485027" y="49" />
              <mxPoint x="394.1676646706586" y="14" />
              <mxPoint x="538.5988023952096" y="24" />
              <mxPoint x="493" y="82" />
              <mxPoint x="566.6826347305389" y="118" />
            </Array>
          </mxGeometry>
        </mxCell>
        <mxCell id="M7_paJHChMFwzIcC6LB1-65" value="" style="curved=1;endArrow=oval;html=1;rounded=0;fontFamily=Architects Daughter;fontSource=https%3A%2F%2Ffonts.googleapis.com%2Fcss%3Ffamily%3DArchitects%2BDaughter;fontSize=16;startSize=14;endSize=14;sourcePerimeterSpacing=8;targetPerimeterSpacing=8;endFill=1;startArrow=oval;startFill=1;dashed=1;" edge="1" parent="M7_paJHChMFwzIcC6LB1-61">
          <mxGeometry width="50" height="50" relative="1" as="geometry">
            <mxPoint y="149" as="sourcePoint" />
            <mxPoint x="670" y="39" as="targetPoint" />
            <Array as="points">
              <mxPoint x="100.2994011976048" y="136" />
              <mxPoint x="122.36526946107784" y="112" />
              <mxPoint x="188.56287425149696" y="80" />
              <mxPoint x="351.04790419161674" y="73" />
              <mxPoint x="375.11976047904193" y="65" />
              <mxPoint x="403.20359281437123" y="9" />
              <mxPoint x="569.7005988023951" y="21" />
            </Array>
          </mxGeometry>
        </mxCell>
        <mxCell id="M7_paJHChMFwzIcC6LB1-79" value="&lt;font face=&quot;Times New Roman&quot;&gt;2&lt;/font&gt;" style="text;html=1;align=center;verticalAlign=middle;whiteSpace=wrap;rounded=0;fontSize=20;fontFamily=Architects Daughter;fontSource=https%3A%2F%2Ffonts.googleapis.com%2Fcss%3Ffamily%3DArchitects%2BDaughter;" vertex="1" parent="M7_paJHChMFwzIcC6LB1-61">
          <mxGeometry x="540" y="-10" width="60" height="30" as="geometry" />
        </mxCell>
        <mxCell id="M7_paJHChMFwzIcC6LB1-80" value="&lt;font face=&quot;Times New Roman&quot;&gt;3&lt;/font&gt;" style="text;html=1;align=center;verticalAlign=middle;whiteSpace=wrap;rounded=0;fontSize=20;fontFamily=Architects Daughter;fontSource=https%3A%2F%2Ffonts.googleapis.com%2Fcss%3Ffamily%3DArchitects%2BDaughter;" vertex="1" parent="M7_paJHChMFwzIcC6LB1-61">
          <mxGeometry x="560" y="40" width="60" height="30" as="geometry" />
        </mxCell>
        <mxCell id="M7_paJHChMFwzIcC6LB1-81" value="&lt;font face=&quot;Times New Roman&quot;&gt;n&lt;/font&gt;" style="text;html=1;align=center;verticalAlign=middle;whiteSpace=wrap;rounded=0;fontSize=20;fontFamily=Architects Daughter;fontSource=https%3A%2F%2Ffonts.googleapis.com%2Fcss%3Ffamily%3DArchitects%2BDaughter;" vertex="1" parent="M7_paJHChMFwzIcC6LB1-61">
          <mxGeometry x="480" y="90" width="60" height="30" as="geometry" />
        </mxCell>
        <mxCell id="M7_paJHChMFwzIcC6LB1-82" value="......" style="text;strokeColor=none;fillColor=none;html=1;align=center;verticalAlign=middle;whiteSpace=wrap;rounded=0;fontSize=20;fontFamily=Times New Roman;" vertex="1" parent="M7_paJHChMFwzIcC6LB1-61">
          <mxGeometry x="520" y="60" width="40" height="30" as="geometry" />
        </mxCell>
        <mxCell id="M7_paJHChMFwzIcC6LB1-83" value="&lt;font face=&quot;宋体&quot;&gt;起点&lt;/font&gt;" style="text;html=1;align=center;verticalAlign=middle;whiteSpace=wrap;rounded=0;fontSize=20;fontFamily=Architects Daughter;fontSource=https%3A%2F%2Ffonts.googleapis.com%2Fcss%3Ffamily%3DArchitects%2BDaughter;" vertex="1" parent="M7_paJHChMFwzIcC6LB1-61">
          <mxGeometry x="-30" y="162" width="60" height="30" as="geometry" />
        </mxCell>
        <mxCell id="M7_paJHChMFwzIcC6LB1-71" value="&lt;font face=&quot;Times New Roman&quot;&gt;T&lt;/font&gt;" style="text;html=1;align=center;verticalAlign=middle;whiteSpace=wrap;rounded=0;fontSize=20;fontFamily=Architects Daughter;fontSource=https%3A%2F%2Ffonts.googleapis.com%2Fcss%3Ffamily%3DArchitects%2BDaughter;" vertex="1" parent="1">
          <mxGeometry x="-180" y="280" width="60" height="30" as="geometry" />
        </mxCell>
        <mxCell id="M7_paJHChMFwzIcC6LB1-72" value="&lt;font face=&quot;Times New Roman&quot;&gt;T+1&lt;/font&gt;" style="text;html=1;align=center;verticalAlign=middle;whiteSpace=wrap;rounded=0;fontSize=20;fontFamily=Architects Daughter;fontSource=https%3A%2F%2Ffonts.googleapis.com%2Fcss%3Ffamily%3DArchitects%2BDaughter;" vertex="1" parent="1">
          <mxGeometry x="9" y="280" width="60" height="30" as="geometry" />
        </mxCell>
        <mxCell id="M7_paJHChMFwzIcC6LB1-75" value="&lt;font face=&quot;Times New Roman&quot;&gt;T+n&lt;/font&gt;" style="text;html=1;align=center;verticalAlign=middle;whiteSpace=wrap;rounded=0;fontSize=20;fontFamily=Architects Daughter;fontSource=https%3A%2F%2Ffonts.googleapis.com%2Fcss%3Ffamily%3DArchitects%2BDaughter;" vertex="1" parent="1">
          <mxGeometry x="280" y="280" width="60" height="30" as="geometry" />
        </mxCell>
        <mxCell id="M7_paJHChMFwzIcC6LB1-77" value="&lt;font face=&quot;Times New Roman&quot;&gt;1&lt;/font&gt;" style="text;html=1;align=center;verticalAlign=middle;whiteSpace=wrap;rounded=0;fontSize=20;fontFamily=Architects Daughter;fontSource=https%3A%2F%2Ffonts.googleapis.com%2Fcss%3Ffamily%3DArchitects%2BDaughter;" vertex="1" parent="1">
          <mxGeometry x="290" y="780" width="60" height="30" as="geometry" />
        </mxCell>
        <mxCell id="M7_paJHChMFwzIcC6LB1-85" value="&lt;font face=&quot;宋体&quot;&gt;终点&lt;/font&gt;" style="text;html=1;align=center;verticalAlign=middle;whiteSpace=wrap;rounded=0;fontSize=20;fontFamily=Architects Daughter;fontSource=https%3A%2F%2Ffonts.googleapis.com%2Fcss%3Ffamily%3DArchitects%2BDaughter;" vertex="1" parent="1">
          <mxGeometry x="390" y="830" width="60" height="30" as="geometry" />
        </mxCell>
        <mxCell id="M7_paJHChMFwzIcC6LB1-86" value="" style="endArrow=oval;html=1;rounded=0;fontFamily=Architects Daughter;fontSource=https%3A%2F%2Ffonts.googleapis.com%2Fcss%3Ffamily%3DArchitects%2BDaughter;fontSize=16;startSize=14;endSize=14;sourcePerimeterSpacing=8;targetPerimeterSpacing=8;curved=1;startArrow=oval;startFill=1;endFill=1;" edge="1" parent="1">
          <mxGeometry width="50" height="50" relative="1" as="geometry">
            <mxPoint x="-120" y="1260" as="sourcePoint" />
            <mxPoint x="-10" y="1170" as="targetPoint" />
          </mxGeometry>
        </mxCell>
        <mxCell id="M7_paJHChMFwzIcC6LB1-87" value="" style="endArrow=oval;html=1;rounded=0;fontFamily=Architects Daughter;fontSource=https%3A%2F%2Ffonts.googleapis.com%2Fcss%3Ffamily%3DArchitects%2BDaughter;fontSize=16;startSize=14;endSize=14;sourcePerimeterSpacing=8;targetPerimeterSpacing=8;curved=1;startArrow=oval;startFill=1;endFill=1;" edge="1" parent="1">
          <mxGeometry width="50" height="50" relative="1" as="geometry">
            <mxPoint x="-10" y="1170" as="sourcePoint" />
            <mxPoint x="50" y="1200" as="targetPoint" />
          </mxGeometry>
        </mxCell>
        <mxCell id="M7_paJHChMFwzIcC6LB1-88" value="" style="endArrow=oval;html=1;rounded=0;fontFamily=Architects Daughter;fontSource=https%3A%2F%2Ffonts.googleapis.com%2Fcss%3Ffamily%3DArchitects%2BDaughter;fontSize=16;startSize=14;endSize=14;sourcePerimeterSpacing=8;targetPerimeterSpacing=8;curved=1;startArrow=oval;startFill=1;endFill=1;" edge="1" parent="1">
          <mxGeometry width="50" height="50" relative="1" as="geometry">
            <mxPoint x="50" y="1200" as="sourcePoint" />
            <mxPoint x="110" y="1230" as="targetPoint" />
          </mxGeometry>
        </mxCell>
        <mxCell id="M7_paJHChMFwzIcC6LB1-89" value="" style="endArrow=oval;html=1;rounded=0;fontFamily=Architects Daughter;fontSource=https%3A%2F%2Ffonts.googleapis.com%2Fcss%3Ffamily%3DArchitects%2BDaughter;fontSize=16;startSize=14;endSize=14;sourcePerimeterSpacing=8;targetPerimeterSpacing=8;curved=1;startArrow=oval;startFill=1;endFill=1;" edge="1" parent="1">
          <mxGeometry width="50" height="50" relative="1" as="geometry">
            <mxPoint x="110" y="1230" as="sourcePoint" />
            <mxPoint x="150" y="1220" as="targetPoint" />
          </mxGeometry>
        </mxCell>
        <mxCell id="M7_paJHChMFwzIcC6LB1-90" value="" style="endArrow=oval;html=1;rounded=0;fontFamily=Architects Daughter;fontSource=https%3A%2F%2Ffonts.googleapis.com%2Fcss%3Ffamily%3DArchitects%2BDaughter;fontSize=16;startSize=14;endSize=14;sourcePerimeterSpacing=8;targetPerimeterSpacing=8;curved=1;startArrow=oval;startFill=1;endFill=1;" edge="1" parent="1">
          <mxGeometry width="50" height="50" relative="1" as="geometry">
            <mxPoint x="150" y="1220" as="sourcePoint" />
            <mxPoint x="210" y="1250" as="targetPoint" />
          </mxGeometry>
        </mxCell>
        <mxCell id="M7_paJHChMFwzIcC6LB1-91" value="" style="endArrow=oval;html=1;rounded=0;fontFamily=Architects Daughter;fontSource=https%3A%2F%2Ffonts.googleapis.com%2Fcss%3Ffamily%3DArchitects%2BDaughter;fontSize=16;startSize=14;endSize=14;sourcePerimeterSpacing=8;targetPerimeterSpacing=8;curved=1;startArrow=oval;startFill=1;endFill=1;" edge="1" parent="1">
          <mxGeometry width="50" height="50" relative="1" as="geometry">
            <mxPoint x="210" y="1250" as="sourcePoint" />
            <mxPoint x="280" y="1210" as="targetPoint" />
          </mxGeometry>
        </mxCell>
        <mxCell id="M7_paJHChMFwzIcC6LB1-92" value="" style="endArrow=oval;html=1;rounded=0;fontFamily=Architects Daughter;fontSource=https%3A%2F%2Ffonts.googleapis.com%2Fcss%3Ffamily%3DArchitects%2BDaughter;fontSize=16;startSize=14;endSize=14;sourcePerimeterSpacing=8;targetPerimeterSpacing=8;curved=1;startArrow=oval;startFill=1;endFill=1;" edge="1" parent="1">
          <mxGeometry width="50" height="50" relative="1" as="geometry">
            <mxPoint x="280" y="1210" as="sourcePoint" />
            <mxPoint x="340" y="1230" as="targetPoint" />
          </mxGeometry>
        </mxCell>
        <mxCell id="M7_paJHChMFwzIcC6LB1-93" value="" style="endArrow=oval;dashed=1;html=1;dashPattern=1 3;strokeWidth=2;rounded=0;fontFamily=Architects Daughter;fontSource=https%3A%2F%2Ffonts.googleapis.com%2Fcss%3Ffamily%3DArchitects%2BDaughter;fontSize=16;startSize=14;endSize=14;sourcePerimeterSpacing=8;targetPerimeterSpacing=8;curved=1;startArrow=oval;startFill=1;endFill=1;" edge="1" parent="1">
          <mxGeometry width="50" height="50" relative="1" as="geometry">
            <mxPoint x="-120" y="1260" as="sourcePoint" />
            <mxPoint x="50" y="1200" as="targetPoint" />
          </mxGeometry>
        </mxCell>
        <mxCell id="M7_paJHChMFwzIcC6LB1-94" value="" style="endArrow=oval;dashed=1;html=1;dashPattern=1 3;strokeWidth=2;rounded=0;fontFamily=Architects Daughter;fontSource=https%3A%2F%2Ffonts.googleapis.com%2Fcss%3Ffamily%3DArchitects%2BDaughter;fontSize=16;startSize=14;endSize=14;sourcePerimeterSpacing=8;targetPerimeterSpacing=8;curved=1;startArrow=oval;startFill=1;endFill=1;" edge="1" parent="1">
          <mxGeometry width="50" height="50" relative="1" as="geometry">
            <mxPoint x="50" y="1200" as="sourcePoint" />
            <mxPoint x="210" y="1250" as="targetPoint" />
          </mxGeometry>
        </mxCell>
        <mxCell id="M7_paJHChMFwzIcC6LB1-95" value="" style="endArrow=oval;dashed=1;html=1;dashPattern=1 3;strokeWidth=2;rounded=0;fontFamily=Architects Daughter;fontSource=https%3A%2F%2Ffonts.googleapis.com%2Fcss%3Ffamily%3DArchitects%2BDaughter;fontSize=16;startSize=14;endSize=14;sourcePerimeterSpacing=8;targetPerimeterSpacing=8;curved=1;startArrow=oval;startFill=1;endFill=1;" edge="1" parent="1">
          <mxGeometry width="50" height="50" relative="1" as="geometry">
            <mxPoint x="210" y="1250" as="sourcePoint" />
            <mxPoint x="340" y="1230" as="targetPoint" />
          </mxGeometry>
        </mxCell>
        <mxCell id="M7_paJHChMFwzIcC6LB1-96" value="" style="endArrow=none;dashed=1;html=1;dashPattern=1 3;strokeWidth=2;rounded=0;fontFamily=Architects Daughter;fontSource=https%3A%2F%2Ffonts.googleapis.com%2Fcss%3Ffamily%3DArchitects%2BDaughter;fontSize=16;startSize=14;endSize=14;sourcePerimeterSpacing=8;targetPerimeterSpacing=8;curved=1;" edge="1" parent="1" target="M7_paJHChMFwzIcC6LB1-97">
          <mxGeometry width="50" height="50" relative="1" as="geometry">
            <mxPoint x="170" y="1290" as="sourcePoint" />
            <mxPoint x="250" y="1290" as="targetPoint" />
          </mxGeometry>
        </mxCell>
        <mxCell id="M7_paJHChMFwzIcC6LB1-97" value="&lt;font face=&quot;宋体&quot;&gt;简化轨迹&lt;/font&gt;" style="text;html=1;align=center;verticalAlign=middle;resizable=0;points=[];autosize=1;strokeColor=none;fillColor=none;fontSize=20;fontFamily=Architects Daughter;fontSource=https%3A%2F%2Ffonts.googleapis.com%2Fcss%3Ffamily%3DArchitects%2BDaughter;" vertex="1" parent="1">
          <mxGeometry x="250" y="1270" width="100" height="40" as="geometry" />
        </mxCell>
        <mxCell id="M7_paJHChMFwzIcC6LB1-99" value="" style="endArrow=none;html=1;strokeWidth=2;rounded=0;fontFamily=Architects Daughter;fontSource=https%3A%2F%2Ffonts.googleapis.com%2Fcss%3Ffamily%3DArchitects%2BDaughter;fontSize=16;startSize=14;endSize=14;sourcePerimeterSpacing=8;targetPerimeterSpacing=8;curved=1;" edge="1" parent="1">
          <mxGeometry width="50" height="50" relative="1" as="geometry">
            <mxPoint x="166" y="1319.71" as="sourcePoint" />
            <mxPoint x="246" y="1319.71" as="targetPoint" />
          </mxGeometry>
        </mxCell>
        <mxCell id="M7_paJHChMFwzIcC6LB1-100" value="&lt;font face=&quot;宋体&quot;&gt;原始轨迹&lt;/font&gt;" style="text;html=1;align=center;verticalAlign=middle;resizable=0;points=[];autosize=1;strokeColor=none;fillColor=none;fontSize=20;fontFamily=Architects Daughter;fontSource=https%3A%2F%2Ffonts.googleapis.com%2Fcss%3Ffamily%3DArchitects%2BDaughter;" vertex="1" parent="1">
          <mxGeometry x="250" y="1300" width="100" height="40" as="geometry" />
        </mxCell>
      </root>
    </mxGraphModel>
  </diagram>
</mxfile>
